<?xml version="1.0" encoding="utf-8"?>
<!-- Generator: Adobe Illustrator 26.4.1, SVG Export Plug-In . SVG Version: 6.00 Build 0)  -->
<svg version="1.1" id="Layer_1" xmlns="http://www.w3.org/2000/svg" xmlns:xlink="http://www.w3.org/1999/xlink" x="0px" y="0px"
	 viewBox="0 0 30.6 35.4" style="enable-background:new 0 0 30.6 35.4;" xml:space="preserve">
<style type="text/css">
	.st0{fill:#2F1947;}
</style>
<g>
	<path class="st0" d="M12.1,19.5c-0.7,0-1.4,0.1-2.1,0.4c-0.6,0.3-1.2,0.7-1.7,1.2c-0.5,0.5-0.9,1-1.1,1.6C7,23.4,6.8,24,6.8,24.7
		c0,0.9,0.2,1.8,0.7,2.5c0.5,0.7,1.1,1.3,1.9,1.7c0.8,0.4,1.7,0.6,2.7,0.6c1,0,1.8-0.1,2.5-0.4c0.7-0.3,1.2-0.7,1.6-1.2
		s0.8-1,1.1-1.6l4.2,3.5c-0.8,1.6-2.1,2.9-3.8,4c-1.7,1.1-3.9,1.6-6.6,1.6c-2.1,0-4-0.4-5.7-1.3c-1.7-0.9-3.1-2.1-4.1-3.7
		C0.5,28.8,0,27.1,0,25c0-1.5,0.3-2.9,1-4.2c0.7-1.3,1.6-2.4,2.8-3.3c1.2-0.9,2.4-1.7,3.9-2.3c1.4-0.6,2.9-0.9,4.4-0.9L12.1,19.5z
		 M30.6,34.8c-0.4,0-1.1,0-1.9,0s-1.7,0-2.6,0c-0.9,0-1.9,0-3.2,0L8.1,14.9c-0.3-0.4-0.7-1-1.1-1.8c-0.5-0.7-0.9-1.6-1.2-2.5
		C5.5,9.7,5.3,8.8,5.3,7.8c0-1.2,0.3-2.4,0.9-3.6C6.9,3,7.8,2,9.1,1.2C10.4,0.4,12,0,14,0c2.2,0,4.1,0.4,5.7,1.3
		c1.6,0.9,3,1.9,3.9,3.2l-3.3,4.4c-0.9-1-1.8-1.9-2.7-2.5c-0.9-0.6-1.7-0.9-2.5-0.9c-1,0-1.8,0.3-2.2,0.9c-0.5,0.6-0.7,1.3-0.7,2
		c0,0.4,0.1,0.9,0.3,1.4s0.5,1,0.7,1.4c0.2,0.4,0.4,0.7,0.5,0.8L30.6,34.8z M22,14.4h6l-5.7,14.2l-4.8-2.8L22,14.4z"/>
</g>
</svg>
