<?xml version="1.0" encoding="utf-8"?>
<!-- Generator: Adobe Illustrator 26.4.1, SVG Export Plug-In . SVG Version: 6.00 Build 0)  -->
<svg version="1.1" id="Layer_1" xmlns="http://www.w3.org/2000/svg" xmlns:xlink="http://www.w3.org/1999/xlink" x="0px" y="0px"
	 viewBox="0 0 19.1 20.4" style="enable-background:new 0 0 19.1 20.4;" xml:space="preserve">
<style type="text/css">
	.st0{fill:#301947;}
</style>
<g>
	<path class="st0" d="M8.2,20.4c-1.1,0-2.1-0.2-3.1-0.5c-1-0.4-1.9-0.9-2.6-1.7c-0.8-0.7-1.4-1.7-1.8-2.8S0,12.9,0,11.3
		c0-1,0.1-2,0.4-3.1c0.3-1.1,0.7-2.1,1.2-3.1s1.3-1.9,2.2-2.6s1.9-1.4,3.2-1.8C8.2,0.2,9.6,0,11.2,0c1.3,0,2.4,0.2,3.4,0.6
		c1,0.4,1.8,1,2.5,1.8c0.7,0.8,1.2,1.6,1.5,2.6c0.3,1,0.5,2.1,0.5,3.2c0,1-0.1,1.9-0.4,2.8c-0.3,0.9-0.6,1.6-1.1,2.3
		c-0.5,0.7-1,1.2-1.6,1.6c-0.6,0.4-1.4,0.6-2.1,0.6c-0.6,0-1.1-0.2-1.5-0.5c-0.4-0.3-0.8-0.7-1-1.3c-0.2-0.5-0.3-1.2-0.2-1.8
		l0.5,1.4c-0.2,0.3-0.5,0.7-0.9,1c-0.4,0.4-0.8,0.7-1.3,0.9c-0.5,0.3-1,0.4-1.5,0.4c-0.7,0-1.4-0.2-1.9-0.5c-0.6-0.4-1-0.9-1.4-1.6
		C4.3,12.8,4.2,12,4.2,11c0-1.1,0.2-2.2,0.6-3.1c0.4-0.9,1-1.6,1.7-2.2C7.3,5.2,8.1,5,9.1,5c0.6,0,1,0.1,1.4,0.2
		c0.3,0.2,0.6,0.3,0.8,0.6c0.2,0.2,0.4,0.5,0.6,0.8l0.3-1.1h2.6l-0.7,6c0,0.3,0,0.5,0,0.7c0,0.2,0.1,0.3,0.2,0.4
		c0.1,0.1,0.2,0.1,0.3,0.1c0.2,0,0.5-0.1,0.7-0.3c0.2-0.2,0.5-0.5,0.7-0.9c0.2-0.4,0.4-0.8,0.5-1.4c0.1-0.5,0.2-1.1,0.2-1.8
		c0-1-0.2-2-0.6-2.9c-0.4-0.9-1-1.6-1.9-2.1s-1.9-0.8-3.3-0.8c-1.4,0-2.6,0.2-3.5,0.7c-1,0.4-1.8,1-2.4,1.7S3.7,6.3,3.4,7.1
		C3,7.8,2.8,8.6,2.7,9.4c-0.1,0.7-0.2,1.4-0.2,1.9c0,1.2,0.2,2.3,0.5,3.1c0.3,0.9,0.8,1.5,1.3,2.1c0.6,0.5,1.2,0.9,2,1.2
		C7,17.9,7.8,18,8.6,18c0.7,0,1.5-0.1,2.2-0.4c0.7-0.3,1.4-0.6,2-1.1l1.1,1.8c-0.5,0.5-1.1,0.9-1.8,1.2c-0.7,0.3-1.3,0.5-2,0.7
		C9.4,20.3,8.8,20.4,8.2,20.4z M9,13c0.3,0,0.7-0.1,0.9-0.2c0.3-0.1,0.5-0.3,0.7-0.5c0.2-0.2,0.4-0.5,0.6-0.8l0.3-2.4
		c-0.1-0.3-0.2-0.6-0.4-0.8C11,8,10.8,7.9,10.5,7.7c-0.3-0.1-0.6-0.2-0.9-0.2C9.1,7.5,8.7,7.7,8.3,8C7.9,8.3,7.6,8.7,7.4,9.1
		c-0.2,0.5-0.3,0.9-0.3,1.5c0,0.5,0.1,0.9,0.3,1.2c0.2,0.4,0.4,0.7,0.7,0.9C8.3,12.9,8.7,13,9,13z"/>
</g>
</svg>
