<?xml version="1.0" encoding="utf-8"?>
<!-- Generator: Adobe Illustrator 26.4.1, SVG Export Plug-In . SVG Version: 6.00 Build 0)  -->
<svg version="1.1" id="Layer_1" xmlns="http://www.w3.org/2000/svg" xmlns:xlink="http://www.w3.org/1999/xlink" x="0px" y="0px"
	 viewBox="0 0 21.8 42.8" style="enable-background:new 0 0 21.8 42.8;" xml:space="preserve">
<style type="text/css">
	.st0{fill:#301947;}
	.st1{fill:#2F1947;}
</style>
<path class="st0" d="M8.9,14c0,0,0-0.8,0.7-1.3l0-7.7C3.7,5.3,0.2,10.7,0,12.7C-0.2,14.8,0.3,19,6.5,22c0,0,1.4,0.4,3,0.9l0-6.7
	C9,15.8,8.6,15,8.9,14z"/>
<path class="st0" d="M16.4,13.7l3.3-6.1c0,0-2.7-2.1-7.3-2.6v7.2C13.4,12.4,14.7,12.9,16.4,13.7z"/>
<path class="st0" d="M3.4,26.4L0,31.5c0,0,3.9,3.3,9.4,4.4l0-7.6C8.1,28.1,6.1,27.6,3.4,26.4z"/>
<path class="st0" d="M12.4,17.4v7c0.9,0.6,1.3,1.3,0.8,2c0,0,0.1,1-0.8,1.5v8.3c6.2-0.1,9-5.8,9-5.8S24.9,20.8,12.4,17.4z"/>
<polygon class="st1" points="9.6,1.1 12.4,0 12.4,42.8 9.4,42.8 "/>
</svg>
