<?xml version="1.0" encoding="utf-8"?>
<!-- Generator: Adobe Illustrator 26.4.1, SVG Export Plug-In . SVG Version: 6.00 Build 0)  -->
<svg version="1.1" id="Layer_1" xmlns="http://www.w3.org/2000/svg" xmlns:xlink="http://www.w3.org/1999/xlink" x="0px" y="0px"
	 viewBox="0 0 42.2 42.8" style="enable-background:new 0 0 42.2 42.8;" xml:space="preserve">
<style type="text/css">
	.st0{fill:#2F1947;}
	.st1{fill:#2F1846;}
</style>
<polygon class="st0" points="21.5,1.1 28.3,0 20.4,42.8 13.2,42.8 "/>
<path class="st1" d="M8.4,1.1c0,0-8.3,0.4-8.4,10.9c-0.2,10.5,7.8,10.9,7.8,10.9s9.1,0.6,9-10.9S8.4,1.1,8.4,1.1z M12.1,12
	c-0.4,5.2-3.2,5.8-3.2,5.8s-2.6,0.4-3.6-5.1c-1.1-5.6,3.6-6,3.6-6S12.5,6.8,12.1,12z"/>
<path class="st1" d="M33.8,21c0,0-8.3,0.4-8.4,10.9c-0.2,10.5,7.8,10.9,7.8,10.9s9.1,0.6,9-10.9S33.8,21,33.8,21z M37.5,31.9
	c-0.4,5.2-3.2,5.8-3.2,5.8s-2.6,0.4-3.6-5.1c-1.1-5.6,3.6-6,3.6-6S37.9,26.7,37.5,31.9z"/>
</svg>
