<?xml version="1.0" encoding="utf-8"?>
<!-- Generator: Adobe Illustrator 26.4.1, SVG Export Plug-In . SVG Version: 6.00 Build 0)  -->
<svg version="1.1" id="Layer_1" xmlns="http://www.w3.org/2000/svg" xmlns:xlink="http://www.w3.org/1999/xlink" x="0px" y="0px"
	 viewBox="0 0 22.2 31.3" style="enable-background:new 0 0 22.2 31.3;" xml:space="preserve">
<style type="text/css">
	.st0{fill:#2F1846;}
	.st1{fill:#301947;}
</style>
<path class="st0" d="M11.5,21.1c0,0,2.9,1,2.8,2.9s-2.8,3.4-2.8,3.4s-1.6,1.3-3.6-3.2C7.9,24.3,8.2,20.5,11.5,21.1z"/>
<path class="st1" d="M8,6.2L6.1,2.7c0,0,2.1-1.6,5.5-1.5s5.6,3.2,5.7,4.4c0.1,1.2-0.2,3.6-3.7,5.3c0,0-4.8,1.2-3.8,2.5
	c0,0-0.3,2.5,5.6,0l1.9,2.9c0,0-2.8,2.4-6.7,2.7c-3.8,0.2-5.5-3.3-5.5-3.3s-2.2-6,6.1-7.6c0,0,1.4-0.5,1-1.7
	C12.3,6.4,12.2,4.1,8,6.2z"/>
</svg>
