<?xml version="1.0" encoding="utf-8"?>
<!-- Generator: Adobe Illustrator 27.0.0, SVG Export Plug-In . SVG Version: 6.00 Build 0)  -->
<svg version="1.1" id="Layer_1" xmlns="http://www.w3.org/2000/svg" xmlns:xlink="http://www.w3.org/1999/xlink" x="0px" y="0px"
	 viewBox="0 0 21.6 31.3" style="enable-background:new 0 0 21.6 31.3;" xml:space="preserve">
<style type="text/css">
	.st0{fill:#301947;}
</style>
<path class="st0" d="M16.4,15.4c5.2-2.4,4.2-6.6,4.2-6.6C21.6-3.9,0,0.9,0,0.9l0.8,29.9l10.5,0.5c8.9-1.6,10-4.8,10.3-9.3
	C21.9,17.4,16.4,15.4,16.4,15.4z M7.8,5.4c0,0,6.4-0.9,6,3.3c-0.4,4.2-6,4.3-6,4.3V5.4z M8.3,25v-6.5c5.2,0.5,5.4,3.3,5.4,3.3
	C12.6,25.7,8.3,25,8.3,25z"/>
</svg>
