<?xml version="1.0" encoding="utf-8"?>
<!-- Generator: Adobe Illustrator 27.0.0, SVG Export Plug-In . SVG Version: 6.00 Build 0)  -->
<svg version="1.1" id="Layer_1" xmlns="http://www.w3.org/2000/svg" xmlns:xlink="http://www.w3.org/1999/xlink" x="0px" y="0px"
	 viewBox="0 0 23.5 31.3" style="enable-background:new 0 0 23.5 31.3;" xml:space="preserve">
<style type="text/css">
	.st0{fill:#301947;}
</style>
<path class="st0" d="M18.8,20.7c1.6,0.8,3.1,1.7,4.8,2.5c-1.4,4.1-3.4,7.4-7.8,7.9c-4.9,0.7-9.3-0.2-12.5-4.7
	C-0.9,20.6-1.2,9.8,3.1,4.3c2.8-3.6,7.5-5.1,12.2-3.8c3.9,1,6.4,4,6.9,8.1c-2.4,0.8-4.6,2.7-7-0.7c-1.3-1.9-5.3-0.5-6.6,1.8
	c-2.1,3.7-0.9,10.3,2.2,13.1C13.4,25.2,15.3,24.7,18.8,20.7z"/>
</svg>
