<?xml version="1.0" encoding="utf-8"?>
<!-- Generator: Adobe Illustrator 27.0.0, SVG Export Plug-In . SVG Version: 6.00 Build 0)  -->
<svg version="1.1" id="Layer_1" xmlns="http://www.w3.org/2000/svg" xmlns:xlink="http://www.w3.org/1999/xlink" x="0px" y="0px"
	 viewBox="0 0 24.3 31.3" style="enable-background:new 0 0 24.3 31.3;" xml:space="preserve">
<style type="text/css">
	.st0{fill:#301947;}
</style>
<path class="st0" d="M23.2,8c-1.4,0.5-2.6,1.1-3.9,1.3c-0.7,0.1-1.7-0.1-2.3-0.5C14.4,6.7,12,6.9,9.7,9.4
	c-2.5,2.8-2.9,10.1-0.7,13.1c1.3,1.7,2.9,2.8,5.1,2.3c2.4-0.5,4-1.9,4.4-4.5c-1.5,0-2.8,0-4.4,0c0-1.8,0-3.6,0-5.6
	c3,0.3,5.9,0.6,8.8,1c0.5,0.1,1.3,0.8,1.3,1.3c0.4,4.9-0.7,9.5-5,12.3c-4.2,2.7-8.8,2.9-13.1,0c-3.7-2.5-5.5-6.2-6-10.6
	C-0.5,12.8,0.4,7.3,4.6,2.8c3.1-3.3,7-3.2,10.9-2.3C19.4,1.4,21.8,4,23.2,8z"/>
</svg>
