<?xml version="1.0" encoding="utf-8"?>
<!-- Generator: Adobe Illustrator 27.0.0, SVG Export Plug-In . SVG Version: 6.00 Build 0)  -->
<svg version="1.1" id="Layer_1" xmlns="http://www.w3.org/2000/svg" xmlns:xlink="http://www.w3.org/1999/xlink" x="0px" y="0px"
	 viewBox="0 0 27.2 39.4" style="enable-background:new 0 0 27.2 39.4;" xml:space="preserve">
<style type="text/css">
	.st0{fill:#301947;}
</style>
<path class="st0" d="M12,0C12,0,0.3,0.1,0,15.7c-0.3,15.5,12.7,15.7,12.7,15.7s1.3,0,3.2-0.5c4-1.1,10.3-4.7,10.1-15.7
	C25.7-1,12,0,12,0z M14.9,23c0,0-6.1-0.6-9.4-9.1c0,0-0.1-2.9,1.9-3.2c2.1-0.3,5.6,4.4,5.6,4.4s2.6-6.2,4.8-5.3s2.3,3.4,2.3,3.4
	S19.8,18.2,14.9,23z"/>
<polygon class="st0" points="19.7,39.4 27.2,34.6 21.5,27.8 15.9,30.9 "/>
</svg>
