<?xml version="1.0" encoding="utf-8"?>
<!-- Generator: Adobe Illustrator 27.0.0, SVG Export Plug-In . SVG Version: 6.00 Build 0)  -->
<svg version="1.1" id="Layer_1" xmlns="http://www.w3.org/2000/svg" xmlns:xlink="http://www.w3.org/1999/xlink" x="0px" y="0px"
	 viewBox="0 0 21.8 31.3" style="enable-background:new 0 0 21.8 31.3;" xml:space="preserve">
<style type="text/css">
	.st0{fill:#301947;}
</style>
<path class="st0" d="M16.4,8.8l3.3-6.1c0,0-3.6-2.8-9.7-2.7S0.2,5.7,0,7.8s0.3,6.3,6.5,9.3c0,0,8.4,2.1,6.7,4.4c0,0,0.6,4.4-9.8,0
	L0,26.6c0,0,5,4.3,11.7,4.7s9.7-5.8,9.7-5.8s3.8-10.5-10.7-13.4c0,0-2.4-0.9-1.8-3C8.8,9.1,9,5.1,16.4,8.8z"/>
</svg>
