<?xml version="1.0" encoding="utf-8"?>
<!-- Generator: Adobe Illustrator 27.0.0, SVG Export Plug-In . SVG Version: 6.00 Build 0)  -->
<svg version="1.1" id="Layer_1" xmlns="http://www.w3.org/2000/svg" xmlns:xlink="http://www.w3.org/1999/xlink" x="0px" y="0px"
	 viewBox="0 0 22.9 31.3" style="enable-background:new 0 0 22.9 31.3;" xml:space="preserve">
<style type="text/css">
	.st0{fill:#301947;}
</style>
<path class="st0" d="M0.3,0.3c3.1,0,5.3,0,7.9,0c0,3.1-0.1,6.1,0,9.1c0.1,3.6,0.3,7.2,0.6,10.8c0.2,1.9,0.8,3.8,3.3,3.7
	c2.3-0.2,3.1-1.7,3.1-3.8c-0.1-5.7-0.3-11.4-0.5-17.2c0-0.7,0-1.4,0-2.3c2.4-0.2,4.7-0.3,7.9-0.6c0.1,7.5,0.6,15,0,22.4
	c-0.4,5.9-4.2,8.4-11,8.9C7,31.6,2.9,28.6,1.4,23.5C-0.9,15.9,0.3,8.2,0.3,0.3z"/>
</svg>
