<?xml version="1.0" encoding="utf-8"?>
<!-- Generator: Adobe Illustrator 27.0.0, SVG Export Plug-In . SVG Version: 6.00 Build 0)  -->
<svg version="1.1" id="Layer_1" xmlns="http://www.w3.org/2000/svg" xmlns:xlink="http://www.w3.org/1999/xlink" x="0px" y="0px"
	 viewBox="0 0 13.8 21.3" style="enable-background:new 0 0 13.8 21.3;" xml:space="preserve">
<style type="text/css">
	.st0{fill:#2F1846;}
</style>
<path class="st0" d="M1.4,15.4L0,19.3c0,0,3.1,2.4,6.8,2c0,0,6.4,0.7,7-5.8c0,0,0.3-3.4-3.3-4.8c0,0,3-1.2,3.3-5c0,0,0-5.1-6.9-5.6
	c0,0-5,0.2-6.5,2.5l1.5,3.6c0,0,2-1.7,4.3-1.7c2.4,0,2.3,2.2,2.3,2.2s-0.1,3-4.7,2.4l-0.1,3.1c0,0,5-0.5,4.9,2.4
	c0,0-0.1,2.3-2.5,2.2C6,16.9,3.7,17,1.4,15.4z"/>
</svg>
