<?xml version="1.0" encoding="utf-8"?>
<!-- Generator: Adobe Illustrator 27.0.0, SVG Export Plug-In . SVG Version: 6.00 Build 0)  -->
<svg version="1.1" id="Layer_1" xmlns="http://www.w3.org/2000/svg" xmlns:xlink="http://www.w3.org/1999/xlink" x="0px" y="0px"
	 viewBox="0 0 16.8 21.8" style="enable-background:new 0 0 16.8 21.8;" xml:space="preserve">
<style type="text/css">
	.st0{fill:#2F1846;}
</style>
<path class="st0" d="M9.8,8.4c0,0-2.2-0.4-3.9,1.9c0,0-0.5-5.2,3.3-5.8c0,0,2.6,0.1,3.9,2.2l2.3-3.8c0,0-0.8-2.2-6.1-2.5
	c0,0-8.5-0.8-8.5,11.1c0,0-0.5,9.9,8,10.1c0,0,7.4-0.1,7.1-7.2C15.8,14.4,16.4,8.5,9.8,8.4z M8.8,17.3c-2.5,0.6-2.5-3.1-2.5-3.1
	s0.6-1.8,2.5-1.7c2,0.2,2.1,1.9,2.1,1.9S11.2,16.7,8.8,17.3z"/>
</svg>
