<?xml version="1.0" encoding="utf-8"?>
<!-- Generator: Adobe Illustrator 27.0.0, SVG Export Plug-In . SVG Version: 6.00 Build 0)  -->
<svg version="1.1" id="Layer_1" xmlns="http://www.w3.org/2000/svg" xmlns:xlink="http://www.w3.org/1999/xlink" x="0px" y="0px"
	 viewBox="0 0 15.1 21.3" style="enable-background:new 0 0 15.1 21.3;" xml:space="preserve">
<style type="text/css">
	.st0{fill:#2F1846;}
</style>
<path class="st0" d="M11.8,10.6c0,0,3.2-2.5,3-5.2c0,0-0.5-5.9-7.2-5.3c0,0-6.5-0.5-6.9,5.5c0,0-0.3,2.6,2.7,4.9
	c0,0-3.2,1.4-3.3,5.1c0,0-0.5,5.5,7.5,5.7c0,0,7.4,0.2,7.6-5.9C15.1,15.4,15.3,12.4,11.8,10.6z M7.6,4.2c0,0,2.2,0.2,2.1,2.1
	C9.6,8.1,8.2,8.8,8.2,8.8C5.8,8.2,5.8,6.2,5.8,6.2C5.6,4.5,7.6,4.2,7.6,4.2z M7.5,16.8c0,0-2.1-0.1-2.2-2.3c0,0,0-1.8,1.5-2.3
	c0,0,2.5,0.4,2.8,2.5C9.7,14.7,9.7,16.6,7.5,16.8z"/>
</svg>
