<?xml version="1.0" encoding="utf-8"?>
<!-- Generator: Adobe Illustrator 27.0.0, SVG Export Plug-In . SVG Version: 6.00 Build 0)  -->
<svg version="1.1" id="Layer_1" xmlns="http://www.w3.org/2000/svg" xmlns:xlink="http://www.w3.org/1999/xlink" x="0px" y="0px"
	 viewBox="0 0 14.8 21.2" style="enable-background:new 0 0 14.8 21.2;" xml:space="preserve">
<style type="text/css">
	.st0{fill:#2F1846;}
</style>
<path class="st0" d="M7.2,0c0,0-6.9-0.5-7.1,7.2c0,0-0.2,6.2,6,6.1c0,0,2.2,0.1,3.7-1.6c0,0,0.1,5.1-3.5,5.3c0,0-2.4-0.1-4.3-2.2
	l-2,3.6c0,0,1.5,2.9,6.6,2.7c0,0,8.2,0.3,8.1-11C14.8,10.2,15.2-0.2,7.2,0z M9.5,7.7C9.1,9.1,7.2,9.2,7.2,9.2C4.9,9.4,5,6.7,5,6.7
	c0-2.3,2.2-2.5,2.2-2.5C9.7,5.1,9.5,7.7,9.5,7.7z"/>
</svg>
